<svg width="722" height="686" viewBox="0 0 722 686" fill="none" xmlns="http://www.w3.org/2000/svg">
<path fill-rule="evenodd" clip-rule="evenodd" d="M359.332 36.2492C402.829 43.1379 447.268 37.8196 489.103 51.5754C533.013 66.013 577.782 84.156 608.921 118.315C640.098 152.516 646.341 201.318 664.433 243.913C683.947 289.857 719.369 331.102 720.494 381.006C721.636 431.647 705.388 485.893 670.724 522.828C636.1 559.722 575.262 554.354 532.472 581.352C492.911 606.314 473.466 657.904 429.85 674.808C385.459 692.013 335.535 683.786 288.587 675.877C240.576 667.788 189.056 659.937 152.271 628.042C115.747 596.374 108.551 543.589 86.4372 500.602C65.2555 459.426 36.3214 422.893 23.8048 378.312C10.2077 329.882 -11.0352 275.182 10.3674 229.661C32.3054 183 100.811 179.654 135.248 141.28C169.758 102.826 163.087 29.2815 209.872 7.35275C256.325 -14.4207 308.66 28.2242 359.332 36.2492Z" stroke="black"/>
</svg>
