<svg width="672" height="732" viewBox="0 0 672 732" fill="none" xmlns="http://www.w3.org/2000/svg">
<path fill-rule="evenodd" clip-rule="evenodd" d="M320.094 1.24272C370.259 3.30995 398.564 61.6133 441.712 87.286C479.804 109.951 529.303 112.479 560.299 144.163C591.483 176.039 597.337 223.695 615.152 264.575C634.515 309.012 670.55 348.813 670.601 397.285C670.652 446.021 644.268 491.669 615.431 530.958C587.725 568.706 543.374 588.377 507.906 618.947C469.553 652.004 444.148 702.692 396.456 719.698C348.401 736.834 291.35 734.441 245.239 712.609C199.598 690.999 181.134 636.561 145.432 600.847C115.015 570.421 72.5368 553.003 49.4145 516.722C25.9996 479.982 20.2557 435.667 12.8031 392.743C5.01434 347.882 -3.65814 302.695 4.47703 257.895C13.0529 210.669 26.3045 160.32 61.0266 127.18C95.6539 94.1306 150.879 98.0029 193.929 77.0753C238.546 55.3864 270.527 -0.799838 320.094 1.24272Z" stroke="black"/>
</svg>
