<svg width="664" height="672" viewBox="0 0 664 672" fill="none" xmlns="http://www.w3.org/2000/svg">
<path fill-rule="evenodd" clip-rule="evenodd" d="M342.654 1.12547C388.003 -3.11539 425.885 34.3057 468.269 50.9814C512.36 68.329 567.174 67.2027 599.246 102.08C631.294 136.93 628.151 190.73 639.13 236.785C649.444 280.054 666.098 322.394 662.328 366.715C658.534 411.33 634.947 450.552 617.442 491.765C598.182 537.112 590.301 590.538 553.398 623.18C516.301 655.993 464.021 673.041 414.527 671.25C366.158 669.5 330.139 624.711 283.078 613.398C237.511 602.444 187.12 625.086 144.199 606.265C100.066 586.913 65.3272 548.875 41.0275 507.26C16.6923 465.584 10.6539 416.537 5.40177 368.563C0.13615 320.466 -2.77433 271.704 10.1339 225.074C23.2658 177.635 40.191 125.298 80.5444 97.1112C121.552 68.4678 180.112 90.737 227.082 73.5364C270.242 57.731 296.891 5.40513 342.654 1.12547Z" stroke="black"/>
</svg>
