<svg width="678" height="680" viewBox="0 0 678 680" fill="none" xmlns="http://www.w3.org/2000/svg">
<path fill-rule="evenodd" clip-rule="evenodd" d="M368.894 54.0135C418.548 56.1543 462.142 8.76006 511.337 15.8284C560.991 22.9627 608.779 52.5564 638.745 92.7857C668.539 132.784 671.177 186.461 675.454 236.153C679.243 280.176 673.68 323.903 662.311 366.6C651.863 405.836 623.798 437.163 611.615 475.895C596.021 525.47 613.744 587.027 580.428 626.912C548.44 665.208 491.732 677.12 441.874 679.104C393.632 681.023 351.097 651.151 304.676 637.882C261.11 625.429 210.053 631.362 174.889 602.786C139.726 574.212 141.034 519.282 113.993 482.927C82.9681 441.216 18.8633 424.065 4.74266 374.034C-8.91387 325.648 19.3982 274.358 42.5272 229.718C64.1705 187.945 104.993 161.314 134.106 124.356C165.165 84.926 172.793 17.7113 220.876 3.30575C271.388 -11.8277 316.212 51.7423 368.894 54.0135Z" stroke="black"/>
</svg>
