<svg width="664" height="656" viewBox="0 0 664 656" fill="none" xmlns="http://www.w3.org/2000/svg">
<path fill-rule="evenodd" clip-rule="evenodd" d="M297.357 3.55597C343.514 -4.97273 390.996 8.8284 434.908 25.4081C480.018 42.4398 526.082 63.6343 556.203 101.286C586.035 138.577 585.229 190.695 602.692 235.143C621.204 282.258 668.331 322.443 662.868 372.769C657.4 423.128 600.443 450.852 574.547 494.388C549.007 537.323 554.462 603.815 510.893 628.259C465.608 653.666 408.985 611.462 357.283 616.282C312.464 620.46 273.847 661.016 229.306 654.509C184.862 648.017 153.168 609.165 117.927 581.317C83.6791 554.255 44.7671 530.57 23.926 492.218C3.20043 454.078 -0.391612 408.93 0.669077 365.535C1.67088 324.55 19.2092 287.03 29.9088 247.453C41.0736 206.155 37.6112 158.028 65.5316 125.615C93.4423 93.2133 142.877 92.3003 180.718 72.3765C221.104 51.1129 252.475 11.8491 297.357 3.55597Z" stroke="black"/>
</svg>
