<svg width="665" height="678" viewBox="0 0 665 678" fill="none" xmlns="http://www.w3.org/2000/svg">
<path fill-rule="evenodd" clip-rule="evenodd" d="M335.756 1.18791C380.488 1.10186 424.233 14.7264 464.105 35.0039C503.096 54.8336 534.47 85.5051 564.356 117.447C594.599 149.77 624.261 183.124 641.024 224.092C658.291 266.289 668.963 312.485 662.64 357.637C656.37 402.407 632.325 442.654 605.335 478.921C579.75 513.302 542.169 534.759 509.868 562.924C474.927 593.39 448.333 634.414 405.817 652.891C361 672.368 308.529 685.341 261.914 670.679C215.224 655.993 191.175 605.313 153.859 573.64C119.123 544.158 70.4097 529.081 48.209 489.295C26.0285 449.546 39.1797 400.154 31.9728 355.209C24.3782 307.846 -8.66068 261.768 4.32059 215.59C17.2494 169.599 64.7355 143.129 100.497 111.451C133.626 82.1045 167.552 54.2799 207.627 35.4973C248.105 16.526 291.053 1.2739 335.756 1.18791Z" stroke="black"/>
</svg>
