<svg width="658" height="660" viewBox="0 0 658 660" fill="none" xmlns="http://www.w3.org/2000/svg">
<path fill-rule="evenodd" clip-rule="evenodd" d="M319.821 4.11265C365.935 11.8093 399.948 50.0561 443.681 66.5793C490.241 84.1703 547.389 73.8119 586.333 104.805C625.399 135.893 649.313 186.067 655.998 235.543C662.536 283.935 627.695 328.033 623.063 376.645C618.379 425.797 654.647 481.101 628.6 523.047C602.293 565.412 537.809 560.687 493.994 584.501C455.743 605.291 428.148 645.065 385.769 655.031C343.253 665.029 298.383 654.255 257.02 640.229C217.69 626.891 188.167 596.174 152.003 575.756C111.625 552.96 56.9939 549.808 30.0389 512.079C3.35242 474.726 14.7872 422.992 10.2267 377.313C5.68516 331.823 -2.96982 287.168 3.06046 241.851C9.69369 192.003 16.1271 138.845 47.2188 99.3206C78.5406 59.504 128.248 38.6172 176.075 21.9134C222.16 5.81801 271.673 -3.92381 319.821 4.11265Z" stroke="black"/>
</svg>
