<svg width="688" height="677" viewBox="0 0 688 677" fill="none" xmlns="http://www.w3.org/2000/svg">
<path fill-rule="evenodd" clip-rule="evenodd" d="M354.668 20.8286C404.2 16.8122 459.982 -15.7993 501.798 11.0518C545.931 39.3905 529.722 113.429 562.562 154.323C592.971 192.189 663.245 190.342 681.816 235.215C699.94 279.01 663.486 326.646 653.006 372.869C643.538 414.623 643.538 458.859 622.635 496.223C601.642 533.748 565.911 559.319 533.129 587.144C498.538 616.505 466.665 651.336 423.483 665.262C379.215 679.537 330.665 678.043 285.481 667.007C240.77 656.086 203.5 627.825 165.272 602.193C126.03 575.883 84.3735 551.829 56.6449 513.576C27.8979 473.918 8.76699 427.115 3.09504 378.464C-2.59837 329.629 3.10573 278.568 24.0615 234.092C44.3731 190.983 86.8876 164.485 120.043 130.255C152.196 97.0595 175.907 53.6146 217.79 34.0808C259.792 14.4915 308.474 24.5743 354.668 20.8286Z" stroke="black"/>
</svg>
