<svg width="704" height="616" viewBox="0 0 704 616" fill="none" xmlns="http://www.w3.org/2000/svg">
<path fill-rule="evenodd" clip-rule="evenodd" d="M341.87 8.81876C389.495 5.27681 441.707 -9.14177 483.48 14.0051C525.598 37.3441 537.452 91.86 564.105 131.964C587.568 167.269 610.875 201.087 632.171 237.74C657.516 281.363 697.846 319.709 702.379 369.956C706.954 420.657 689.03 474.414 657.101 514.063C625.601 553.18 574.098 569.018 527.333 587.332C487.059 603.104 444.912 610.497 401.806 614.042C361.955 617.319 323.083 611.856 283.346 607.399C240.446 602.587 194.949 607.075 156.956 586.577C117.981 565.549 90.2082 528.482 67.0757 490.717C43.6645 452.498 31.2127 409.511 21.6699 365.719C11.4516 318.827 -11.5228 267.302 8.92985 223.886C29.898 179.375 92.4176 173.451 128.169 139.647C160.718 108.871 171.134 57.7821 209.339 34.3935C248.135 10.6423 296.506 12.1926 341.87 8.81876Z" stroke="black"/>
</svg>
