<svg width="682" height="694" viewBox="0 0 682 694" fill="none" xmlns="http://www.w3.org/2000/svg">
<path fill-rule="evenodd" clip-rule="evenodd" d="M353.813 3.02993C405.232 13.4742 433.281 68.9121 472.913 103.296C503.396 129.742 530.251 158.373 561.829 183.501C599.171 213.215 659.694 221.322 677.085 265.762C694.171 309.424 652.155 355.011 647.191 401.634C642.234 448.188 669.762 499.188 647.829 540.549C626.009 581.696 573.144 593.86 532.86 617.236C495.597 638.859 459.445 661.289 418.216 673.79C374.998 686.894 330.477 696.196 285.489 692.242C238.114 688.078 184.138 684.156 150.758 650.281C116.66 615.677 133.316 554.193 108.377 512.502C82.9306 469.963 20.2452 454.728 5.47484 407.411C-8.95809 361.175 11.8174 310.336 31.4469 266.056C50.3238 223.473 86.6667 192.889 116.449 157.075C147.218 120.075 170.663 76.299 211.03 50.1019C253.532 22.519 304.16 -7.05584 353.813 3.02993Z" stroke="black"/>
</svg>
