<svg width="694" height="705" viewBox="0 0 694 705" fill="none" xmlns="http://www.w3.org/2000/svg">
<path fill-rule="evenodd" clip-rule="evenodd" d="M354.396 1.39669C398.36 5.40701 431.062 43.1898 471.776 60.2547C511.493 76.9016 560.965 72.7321 593.069 101.434C625.154 130.119 630.626 177.709 647.459 217.318C663.599 255.296 685.472 291.165 691.075 332.048C696.753 373.472 690.289 415.368 680.166 455.935C669.892 497.103 658.817 540.072 631.136 572.23C603.66 604.151 560.39 615.953 524.071 637.28C488.381 658.238 457.227 688.371 416.971 697.99C376.343 707.697 332.662 705.151 292.843 692.53C254.051 680.234 227.582 645.119 191.4 626.494C152.354 606.395 103.412 606.573 70.1505 577.899C36.2635 548.685 8.94291 507.677 2.25938 463.438C-4.44976 419.029 22.7859 377.168 33.2252 333.485C42.5694 294.385 43.75 253.466 61.1049 217.204C78.5501 180.753 106.87 151.512 134.452 121.978C163.362 91.0228 191.276 58.4173 228.417 38.0555C267.096 16.8502 310.468 -2.61043 354.396 1.39669Z" stroke="black"/>
</svg>
