<svg width="664" height="683" viewBox="0 0 664 683" fill="none" xmlns="http://www.w3.org/2000/svg">
<path fill-rule="evenodd" clip-rule="evenodd" d="M323.437 9.70684C366.547 3.04289 412.832 -5.96094 453.185 10.6082C493.558 27.186 514.729 70.9278 546.193 101.173C577.009 130.795 622.095 149.178 638.43 188.677C654.874 228.44 631.309 273.783 635.294 316.627C639.281 359.486 669.07 399.393 661.979 441.849C654.897 484.246 622.633 517.612 596.079 551.414C569.784 584.885 542.899 619.156 506.009 640.389C469.392 661.464 426.443 666.768 384.67 673.094C343.667 679.304 301.933 686.171 261.393 677.435C221.131 668.759 185.452 646.492 151.701 622.889C118.808 599.886 90.092 572.031 65.409 540.379C40.5443 508.494 15.6884 475.105 5.8689 435.881C-3.88875 396.905 4.40594 356.295 9.34144 316.42C14.1898 277.249 19.9125 238.359 34.8396 201.821C50.2482 164.104 67.8027 125.577 98.3301 98.5944C128.787 71.6741 170.544 63.3841 208.352 48.455C246.324 33.461 283.091 15.9436 323.437 9.70684Z" stroke="black"/>
</svg>
