<svg width="691" height="726" viewBox="0 0 691 726" fill="none" xmlns="http://www.w3.org/2000/svg">
<path fill-rule="evenodd" clip-rule="evenodd" d="M349.73 1.3822C394.32 1.23376 425.649 46.3632 466.4 64.4663C505.357 81.7727 554.982 77.2076 586.07 106.375C617.198 135.58 618.176 184.312 635.648 223.257C652.554 260.941 682.502 293.36 688.302 334.254C694.141 375.427 681.632 416.859 668.711 456.385C656.01 495.237 635.494 530.315 613.043 564.472C589.754 599.904 566.224 635.423 533.395 662.257C498.969 690.396 461.057 719.835 416.874 724.816C372.623 729.805 332.278 700.813 289.132 689.796C248.21 679.347 203.609 681.787 166.856 660.978C129.845 640.022 99.0728 607.689 78.4348 570.499C58.3796 534.36 63.1179 490.113 50.2406 450.839C36.8761 410.08 -0.613908 376.157 0.653945 333.281C1.91238 290.723 32.8671 254.928 57.0695 219.9C79.7022 187.144 108.514 160.115 138.444 133.858C168.043 107.891 200 86.1588 233.36 65.2421C271.169 41.5357 305.103 1.53076 349.73 1.3822Z" stroke="black"/>
</svg>
