<svg width="709" height="702" viewBox="0 0 709 702" fill="none" xmlns="http://www.w3.org/2000/svg">
<path fill-rule="evenodd" clip-rule="evenodd" d="M365.033 2.50841C408.824 7.79779 443.436 40.6121 481.572 62.7762C515.874 82.7119 549.488 102.455 580.206 127.564C611.872 153.448 645.706 178.237 666.157 213.656C686.897 249.578 692.638 291.641 698.639 332.684C704.81 374.887 714.008 418.546 702.103 459.502C690.207 500.43 655.396 529.51 631.224 564.615C606.238 600.902 592.436 647.236 555.892 671.844C519.337 696.46 472.233 700.527 428.171 701.351C386.442 702.132 346.824 687.421 306.54 676.511C268.27 666.147 231.031 654.757 195.003 638.205C156.297 620.423 110.453 609.218 85.2775 574.859C60.0696 540.456 71.7496 491.319 57.8358 451.003C43.1441 408.432 -2.87793 374.729 0.716952 329.839C4.29923 285.105 49.9744 256.158 76.3468 219.849C99.7178 187.672 122.67 156.339 148.621 126.205C176.77 93.5191 199.603 54.6467 237.053 33.2412C275.47 11.2828 321.103 -2.79786 365.033 2.50841Z" stroke="black"/>
</svg>
