<svg width="714" height="675" viewBox="0 0 714 675" fill="none" xmlns="http://www.w3.org/2000/svg">
<path fill-rule="evenodd" clip-rule="evenodd" d="M349.761 17.8695C393.256 14.6787 436.542 -7.32829 478.715 3.77915C520.921 14.8951 556.63 45.6737 584.102 79.5887C610.734 112.467 612.668 158.556 633.784 195.221C656.206 234.153 709.197 258.226 712.774 303.01C716.365 347.982 672.999 382.725 651.943 422.626C633.95 456.722 617.189 490.462 596.64 523.082C574.911 557.575 559.809 598.566 526.397 621.924C492.882 645.354 449.146 645.814 409.118 654.176C368.537 662.654 327.703 680.235 287.089 671.918C246.507 663.607 216.737 630.161 181.96 607.657C147.679 585.474 111.213 567.308 81.7476 539.042C50.1006 508.684 9.90851 478.681 2.45904 435.464C-5.1548 391.293 31.0889 351.612 41.9432 308.124C51.4081 270.203 50.4101 230.825 62.7887 193.752C76.0502 154.035 88.4551 112.029 117.493 81.8611C146.761 51.4532 187.245 33.3864 227.934 22.1762C267.446 11.2906 308.888 20.8679 349.761 17.8695Z" stroke="black"/>
</svg>
