<svg width="683" height="685" viewBox="0 0 683 685" fill="none" xmlns="http://www.w3.org/2000/svg">
<path fill-rule="evenodd" clip-rule="evenodd" d="M321.441 28.1445C359.649 35.0653 397.221 39.8249 435.459 46.5798C479.786 54.4102 531.94 43.2982 567.004 71.5238C601.566 99.3448 600.042 152.667 617.773 193.338C634.79 232.37 660.928 267.038 670.344 308.563C680.209 352.067 688.558 399.041 673.978 441.199C659.414 483.315 621.573 512.462 589.23 543.119C559.568 571.234 524.955 591.992 490.96 614.676C456.153 637.902 425.39 669.6 384.75 679.565C343.818 689.602 300.516 681.735 259.659 671.395C219.79 661.305 185.547 638.158 148.729 619.833C109.355 600.236 57.2731 595.381 33.1049 558.635C8.55428 521.308 27.236 470.555 21.4139 426.259C16.2893 387.27 0.993591 350.484 0.577794 311.162C0.143082 270.051 6.18167 229.346 18.9183 190.256C32.5183 148.516 48.3675 106.228 77.9258 73.7706C108.073 40.6661 146.205 10.4034 190.214 2.15772C234.419 -6.12481 277.186 20.1285 321.441 28.1445Z" stroke="black"/>
</svg>
