<svg width="674" height="678" viewBox="0 0 674 678" fill="none" xmlns="http://www.w3.org/2000/svg">
<path fill-rule="evenodd" clip-rule="evenodd" d="M323.406 25.4682C361.804 31.3305 400.674 29.5599 437.975 40.3962C476.807 51.6773 512.944 69.2131 547.316 90.516C585.25 114.027 629.07 134.181 651.524 172.75C673.961 211.288 675.35 259.445 671.532 303.875C667.891 346.249 646.295 384.084 629.989 423.364C614.876 459.771 597.178 494.005 578.252 528.584C557.302 566.863 547.899 615.848 511.482 639.888C475.225 663.822 426.458 651.244 383.423 657.197C341.952 662.935 300.652 685.164 260.124 674.661C219.464 664.124 195.818 621.977 160.397 599.401C125.402 577.097 77.931 573.447 51.3371 541.59C24.7909 509.79 22.7096 464.658 14.092 424.141C5.80054 385.157 0.573118 346.134 1.29012 306.285C2.03535 264.867 4.42277 223.256 18.408 184.263C32.9898 143.607 54.4474 105.096 84.556 74.1278C115.204 42.6054 151.352 11.9905 194.432 3.21399C237.548 -5.56971 279.909 18.8274 323.406 25.4682Z" stroke="black"/>
</svg>
