<svg width="693" height="731" viewBox="0 0 693 731" fill="none" xmlns="http://www.w3.org/2000/svg">
<path fill-rule="evenodd" clip-rule="evenodd" d="M341.021 0.640105C385.605 2.64959 424.931 29.8713 462.79 53.5019C497.526 75.1821 522.379 108.234 554.363 133.799C588.19 160.837 634.436 173.71 658.35 209.813C682.358 246.058 684.104 292.372 688.075 335.665C692.044 378.938 696.12 423.76 681.735 464.765C667.491 505.368 636.043 537.026 606.469 568.281C578.496 597.845 545.712 621.169 512.069 644.076C477.516 667.604 443.616 691.963 404.234 705.984C362.192 720.951 317.792 734.5 273.505 729.006C228.806 723.462 189.37 698.308 151.084 674.584C112.804 650.864 68.9617 628.989 47.8774 589.196C26.649 549.131 43.0067 499.552 34.7224 454.974C27.1425 414.186 -2.68547 377.638 0.880646 336.305C4.44702 294.97 35.0471 261.798 54.5488 225.178C73.6839 189.246 88.8693 151.277 115.713 120.672C143.737 88.7214 177.415 62.3129 214.924 42.3301C254.331 21.3363 296.417 -1.37031 341.021 0.640105Z" stroke="black"/>
</svg>
