<svg width="711" height="713" viewBox="0 0 711 713" fill="none" xmlns="http://www.w3.org/2000/svg">
<path fill-rule="evenodd" clip-rule="evenodd" d="M349.081 1.58817C392.478 4.77219 429.832 31.4487 468.707 50.9965C505.328 69.411 539.346 90.7523 572.984 114.175C609.635 139.695 653.284 158.712 677.391 196.306C701.696 234.208 706.272 281.489 709.092 326.425C711.878 370.826 707.599 415.572 693.803 457.867C680.193 499.597 657.632 537.879 629.212 571.33C601.406 604.061 565.745 628.134 529.532 651.224C493.054 674.482 456.797 700.575 414.247 708.392C371.722 716.204 327.596 708.554 286.248 695.914C246.483 683.758 214.111 656.701 177.958 636.159C140.767 615.028 95.7185 604.636 68.1073 571.967C40.4042 539.189 34.1153 494.018 22.8287 452.612C11.6138 411.469 -3.5231 369.925 1.4908 327.576C6.48323 285.409 33.5052 250.063 51.3704 211.543C69.5952 172.247 78.8341 127.487 108.797 96.206C139.049 64.6227 181.763 48.9528 222.457 32.9289C263.262 16.8607 305.344 -1.6209 349.081 1.58817Z" stroke="black"/>
</svg>
