<svg width="699" height="709" viewBox="0 0 699 709" fill="none" xmlns="http://www.w3.org/2000/svg">
<path fill-rule="evenodd" clip-rule="evenodd" d="M350.346 2.96558C391.867 8.71367 426.273 36.0462 463.552 55.211C498.227 73.0366 532.294 90.4237 564.161 112.885C598.485 137.078 636.547 158.346 659.637 193.421C683.219 229.242 695.442 272.428 697.393 315.271C699.322 357.645 688.341 399.985 670.799 438.606C654.066 475.447 619.306 500.034 597.883 534.361C574.576 571.707 574.614 626.097 538.279 650.952C502.351 675.528 451.936 654.087 409.392 663.295C365.63 672.768 326.966 716.01 283.291 706.144C239.088 696.158 224.519 636.731 186.015 612.834C147.557 588.966 86.9752 603.034 59.3655 567.168C31.8475 531.421 58.1501 477.413 47.9413 433.471C38.243 391.727 0.643667 357.894 0.789485 315.038C0.934963 272.282 28.3904 234.85 48.745 197.25C68.7232 160.345 90.317 124.419 120.025 94.7794C150.279 64.5952 184.611 37.9157 224.309 22.0906C264.121 6.22044 307.893 -2.91156 350.346 2.96558Z" stroke="black"/>
</svg>
