<svg width="685" height="677" viewBox="0 0 685 677" fill="none" xmlns="http://www.w3.org/2000/svg">
<path fill-rule="evenodd" clip-rule="evenodd" d="M330.552 2.7623C378.634 1.96962 428.326 -5.01319 472.866 13.1177C517.725 31.3783 548.802 71.1547 582.946 105.504C618.306 141.075 663.217 171.937 678.291 219.774C693.357 267.586 677.505 319.273 665.655 367.982C654.659 413.183 636.354 455.652 611.361 494.887C586.953 533.204 557.047 567.245 521.06 594.974C484.55 623.105 443.888 644.947 399.681 657.988C353.755 671.537 305.297 681.861 258.343 672.477C211.245 663.064 173.139 631.041 132.987 604.685C91.4442 577.416 38.5139 558.606 16.7855 513.914C-5.04984 469.003 18.8196 415.635 16.8141 365.737C14.9307 318.879 -8.58162 271.875 5.2564 227.067C19.1094 182.21 61.945 154.078 93.0424 118.907C124.366 83.4809 147.829 38.5499 190.311 17.7758C233.012 -3.10559 283.025 3.54581 330.552 2.7623Z" stroke="black"/>
</svg>
