<svg width="693" height="719" viewBox="0 0 693 719" fill="none" xmlns="http://www.w3.org/2000/svg">
<path fill-rule="evenodd" clip-rule="evenodd" d="M350.312 1.46283C399.387 3.91269 447.814 19.0189 489.396 45.1954C529.065 70.1672 552.245 112.694 583.085 147.994C613.536 182.849 652.528 210.973 671.22 253.314C690.491 296.962 694.41 345.817 691.444 393.437C688.42 441.996 678.837 491.085 653.814 532.81C628.914 574.328 588.465 603.014 548.966 631.006C509.747 658.799 468.503 683.14 422.414 696.794C374.501 710.989 322.819 726.496 274.938 712.191C227.243 697.942 195.532 654.133 160.676 618.596C129.442 586.751 105.76 550.079 80.1265 513.575C52.5847 474.353 11.5223 441.251 3.023 394.085C-5.50783 346.743 15.0599 299.077 33.4659 254.633C51.1527 211.927 80.2401 176.416 108.363 139.73C138.177 100.838 162.357 55.3084 204.905 30.9934C248.321 6.18262 300.37 -1.03036 350.312 1.46283Z" stroke="black"/>
</svg>
