<svg width="683" height="705" viewBox="0 0 683 705" fill="none" xmlns="http://www.w3.org/2000/svg">
<path fill-rule="evenodd" clip-rule="evenodd" d="M345.232 4.37136C392.699 8.90891 437.341 25.2578 480.786 44.9089C524.075 64.4895 568 84.8589 600.27 119.73C632.684 154.757 652.261 199.439 666.065 245.123C679.73 290.348 686.213 337.711 680.299 384.584C674.434 431.066 654.32 473.743 632.021 514.945C609.352 556.829 583.844 597.138 548.18 628.701C510.928 661.671 469.46 694.989 420.263 702.36C371.333 709.69 325.173 681.514 277.23 669.295C230.885 657.483 179.89 658.288 140.562 631.072C101.071 603.744 75.0931 560.404 56.1214 516.286C38.0088 474.165 42.1563 427.158 33.5127 382.131C24.1536 333.375 -6.95518 286.771 2.71615 238.077C12.4172 189.233 53.3187 153.535 86.3216 116.243C119.504 78.7489 151.665 37.7 197.627 17.8404C243.481 -1.97281 295.507 -0.382123 345.232 4.37136Z" stroke="black"/>
</svg>
