<svg width="693" height="691" viewBox="0 0 693 691" fill="none" xmlns="http://www.w3.org/2000/svg">
<path fill-rule="evenodd" clip-rule="evenodd" d="M345.972 2.08315C393.596 7.673 431.618 41.6864 474.235 63.6653C514.868 84.6209 558.667 99.1076 592.887 129.425C628.841 161.279 660.883 198.969 677.732 243.953C694.803 289.531 693.629 339.363 689.688 387.874C685.694 437.016 680.316 487.871 654.499 529.875C628.843 571.617 585.002 597.459 544.2 624.585C504.455 651.007 464.371 679.379 417.347 687.537C370.796 695.614 324.294 680.965 278.169 670.739C232.319 660.574 185.717 651.993 145.753 627.326C104.582 601.913 68.7243 567.678 43.9096 526.144C18.9618 484.387 7.32711 436.249 2.66639 387.831C-1.97485 339.615 5.02966 291.782 16.8277 244.802C29.108 195.902 40.1227 144.199 73.3685 106.294C106.692 68.3003 156.36 49.9409 203.565 31.8953C249.366 14.3864 297.273 -3.63298 345.972 2.08315Z" stroke="black"/>
</svg>
