<svg width="699" height="729" viewBox="0 0 699 729" fill="none" xmlns="http://www.w3.org/2000/svg">
<path fill-rule="evenodd" clip-rule="evenodd" d="M331.941 1.7066C381.654 5.06897 428.459 26.3555 470.662 52.8436C510.323 77.7364 538.542 115.39 569.31 150.689C599.712 185.569 630.79 219.241 651.685 260.525C674.402 305.407 704.139 352.995 696.899 402.775C689.639 452.682 645.58 488.196 612.973 526.67C584.011 560.843 548.939 587.233 515.402 616.929C478.996 649.165 450.625 692.322 405.481 710.395C358.668 729.137 305.14 732.891 256.212 720.695C207.652 708.59 170.061 672.335 130.393 641.823C91.4658 611.882 47.134 585.522 24.0885 542.155C1.19103 499.067 1.05269 447.947 1.43668 399.154C1.79827 353.207 14.0301 309.385 26.2689 265.097C38.9039 219.376 48.2046 172.202 74.9757 133.044C103.142 91.8451 140.168 56.2087 184.606 33.4959C229.837 10.3778 281.26 -1.72126 331.941 1.7066Z" stroke="black"/>
</svg>
