<svg width="682" height="653" viewBox="0 0 682 653" fill="none" xmlns="http://www.w3.org/2000/svg">
<path fill-rule="evenodd" clip-rule="evenodd" d="M346.817 3.10837C394.128 2.70837 443.309 -5.23095 486.833 13.3201C530.486 31.9261 559.622 72.338 591.568 107.427C623.635 142.648 662.509 175.168 675.822 220.902C689.081 266.454 672.086 314.315 665.466 361.294C659.018 407.041 656.466 453.457 637.133 495.416C617.03 539.047 592.292 584.215 551.25 609.181C510.48 633.981 458.775 625.38 411.605 632.606C366.714 639.482 323.308 655.492 278.115 651.02C230.868 646.344 183.75 632.986 144.563 606.18C105.038 579.143 77.8021 538.409 53.3221 497.251C28.6657 455.797 1.31537 412.416 0.629714 364.188C-0.0490874 316.442 36.4077 277.12 49.5398 231.211C63.1621 183.588 50.4847 127.307 79.8073 87.3859C109.086 47.5246 160.685 30.5658 207.85 15.6788C252.695 1.52441 299.793 3.50594 346.817 3.10837Z" stroke="black"/>
</svg>
