<svg width="667" height="709" viewBox="0 0 667 709" fill="none" xmlns="http://www.w3.org/2000/svg">
<path fill-rule="evenodd" clip-rule="evenodd" d="M337.277 1.12744C386.677 -1.05061 436.559 6.88526 481.684 27.1064C526.769 47.3096 566.261 78.9112 597.061 117.54C627.153 155.28 645.565 200.644 657.369 247.446C668.794 292.744 667.215 339.218 664.739 385.868C662.175 434.174 666.004 485.392 642.495 527.669C618.934 570.04 575.971 598.1 533.611 621.681C493.467 644.028 446.891 647.17 403.064 660.954C355.232 675.997 311.281 714.397 261.657 707.213C212.304 700.067 179.533 653.37 140.073 622.879C101.517 593.086 54.623 570.903 30.4803 528.58C6.35746 486.291 9.00121 434.891 5.15278 386.358C1.37147 338.672 -3.39202 290.918 7.94972 244.446C19.6635 196.45 38.3299 148.75 71.9723 112.57C105.479 76.5354 153.064 58.6509 198.43 39.595C243.197 20.7903 288.767 3.26619 337.277 1.12744Z" stroke="black"/>
</svg>
