<svg width="692" height="683" viewBox="0 0 692 683" fill="none" xmlns="http://www.w3.org/2000/svg">
<path fill-rule="evenodd" clip-rule="evenodd" d="M327.995 1.8262C376.243 -3.23873 425.979 9.95231 468.429 33.4347C509.88 56.3637 535.029 98.6994 566.737 133.891C598.453 169.092 635.703 199.537 656.465 242.128C678.415 287.155 694.311 336.998 690.079 386.911C685.829 437.048 662.07 483.947 632.514 524.668C604.126 563.78 565.661 594.574 522.945 617.18C482.713 638.472 436.635 641.105 392.378 651.752C347.113 662.642 303.485 687.548 257.381 681.068C210.831 674.525 170.853 645.013 134.283 615.477C98.6034 586.662 69.7001 550.938 46.9474 511.118C24.247 471.389 5.90124 428.714 1.54189 383.166C-2.80267 337.773 8.58916 293.013 21.8986 249.398C35.3493 205.319 48.3964 159.095 80.1189 125.665C111.672 92.4143 159.096 82.09 200.103 61.6032C242.664 40.3395 280.678 6.79351 327.995 1.8262Z" stroke="black"/>
</svg>
