<svg width="692" height="685" viewBox="0 0 692 685" fill="none" xmlns="http://www.w3.org/2000/svg">
<path fill-rule="evenodd" clip-rule="evenodd" d="M342.438 11.9287C389.042 12.8364 436.137 -1.44077 480.748 12.0698C526.922 26.0533 566.549 56.1061 600.731 90.1519C635.774 125.056 667.891 164.987 681.902 212.421C695.818 259.539 691.506 310.449 679.898 358.188C668.896 403.435 638.164 439.735 616.597 481.005C594.216 523.83 584.673 574.583 549.497 607.712C513.427 641.684 464.31 657.886 416.2 669.744C367.337 681.787 315.852 689.672 267.065 677.323C218.741 665.091 179.646 631.471 140.934 600.066C103.459 569.665 66.992 537.468 43.0347 495.58C19.1158 453.759 7.42542 406.373 2.73099 358.424C-1.94706 310.643 1.38256 262.381 15.7174 216.562C30.1216 170.52 54.1159 128.027 86.1077 91.9186C118.213 55.6813 155.492 21.0573 201.708 6.63522C247.015 -7.50315 294.985 11.0045 342.438 11.9287Z" stroke="black"/>
</svg>
