<svg width="666" height="651" viewBox="0 0 666 651" fill="none" xmlns="http://www.w3.org/2000/svg">
<path fill-rule="evenodd" clip-rule="evenodd" d="M348.371 0.64033C393.155 1.71065 435.344 17.0386 477.481 32.2438C521.739 48.2141 571.195 58.2971 603.348 92.6484C635.561 127.065 644.968 176.489 655.5 222.438C665.527 266.182 665.388 310.517 663.564 355.359C661.658 402.216 663.298 450.236 644.489 493.195C625.015 537.674 594.646 578.679 554.095 605.385C513.956 631.819 464.153 636.232 416.61 643.268C370.906 650.033 325.112 653.666 279.547 646.02C232.987 638.207 187.922 623.194 147.884 598.177C106.561 572.357 68.7656 539.904 43.2661 498.383C17.5292 456.475 0.516504 407.935 0.848776 358.757C1.1724 310.858 30.5267 269.321 45.1219 223.699C59.7772 177.89 56.1364 123.81 87.6392 87.4668C119.151 51.1133 170.838 41.2065 216.483 26.0061C259.427 11.7052 303.121 -0.44112 348.371 0.64033Z" stroke="black"/>
</svg>
