<svg width="710" height="706" viewBox="0 0 710 706" fill="none" xmlns="http://www.w3.org/2000/svg">
<path fill-rule="evenodd" clip-rule="evenodd" d="M362.359 1.66833C411.443 4.62853 458.85 18.2391 503.392 39.0738C547.51 59.7108 588.397 86.7729 621.225 122.755C654.146 158.84 679.421 201.462 694.058 248.063C708.636 294.474 712.033 343.691 705.775 391.933C699.583 439.662 682.102 484.869 657.94 526.493C633.806 568.068 603.492 605.949 564.901 634.614C526.138 663.406 480.966 681.667 433.99 692.839C386.445 704.146 337.292 708.688 289.165 700.19C240.342 691.57 193.966 671.952 153.496 643.314C112.81 614.523 79.541 576.672 54.0714 533.829C28.4502 490.73 11.4564 443.118 4.92926 393.406C-1.67508 343.106 0.737051 291.681 15.9223 243.275C31.1693 194.672 58.9457 151.188 92.8422 113.165C126.819 75.0512 166.361 41.1123 213.543 21.5935C260.301 2.25027 311.85 -1.37779 362.359 1.66833Z" stroke="black"/>
</svg>
