<svg width="723" height="696" viewBox="0 0 723 696" fill="none" xmlns="http://www.w3.org/2000/svg">
<path fill-rule="evenodd" clip-rule="evenodd" d="M364.24 0.664867C412.438 1.89182 459.518 14.3199 503.172 34.7873C546.428 55.0679 585.182 83.6123 617.055 119.199C648.891 154.743 670.935 197.1 688.344 241.527C706.353 287.489 725.779 335.2 720.944 384.327C716.103 433.518 685.375 475.17 661.111 518.234C636.669 561.615 616.937 609.938 577.04 639.731C537.04 669.601 485.553 677.647 436.348 686.077C388.254 694.317 339.183 699.385 291.587 688.638C244.218 677.941 202.138 652.566 162.666 624.277C123.052 595.886 86.5176 563.37 59.8649 522.566C32.5507 480.75 13.7807 433.827 6.03567 384.484C-1.8836 334.031 -2.95993 281.194 14.4418 233.179C31.6912 185.585 68.4751 148.536 104.456 112.925C139.266 78.472 177.162 47.061 222.121 27.6328C266.872 8.29453 315.505 -0.575744 364.24 0.664867Z" stroke="black"/>
</svg>
