<svg width="710" height="717" viewBox="0 0 710 717" fill="none" xmlns="http://www.w3.org/2000/svg">
<path fill-rule="evenodd" clip-rule="evenodd" d="M352.811 1.12203C402.585 2.57612 450.007 18.9734 495.672 38.8308C541.563 58.787 586.58 81.9162 621.357 117.9C656.604 154.371 683.281 199.018 697.528 247.695C711.623 295.855 711.55 347.067 702.894 396.495C694.495 444.457 674.099 489.018 648.062 530.163C622.567 570.454 589.494 604.449 552.37 634.37C514.151 665.172 474.447 696.081 426.927 708.387C378.785 720.855 327.478 717.785 279.403 705.059C232.226 692.57 193.026 662.569 152.295 635.687C110.223 607.92 61.3399 586.149 34.5431 543.452C7.59537 500.515 5.10768 447.16 2.21176 396.55C-0.609338 347.246 3.48708 298.112 17.8005 250.848C32.2572 203.111 53.6968 157.471 86.0981 119.55C118.845 81.2253 160.114 50.8313 206.186 30.3738C252.239 9.92497 302.444 -0.349387 352.811 1.12203Z" stroke="black"/>
</svg>
