<svg width="714" height="705" viewBox="0 0 714 705" fill="none" xmlns="http://www.w3.org/2000/svg">
<path fill-rule="evenodd" clip-rule="evenodd" d="M359.008 2.41616C407.304 6.04173 453.475 20.7217 497.415 41.0923C540.99 61.2935 583.031 85.6184 615.271 121.219C647.547 156.86 667.023 201.354 683.465 246.538C700.242 292.644 714.637 340.114 712.763 389.141C710.839 439.437 696.738 488.843 672.513 532.962C648.077 577.466 613.673 616.112 572.121 645.285C530.837 674.269 483.03 693.174 433.194 700.981C384.436 708.618 334.917 702.415 287.172 689.919C240.536 677.713 197.865 655.708 157.798 628.902C116.819 601.486 75.4341 572.577 49.2929 530.774C22.8723 488.524 14.3087 438.275 7.70535 388.883C0.994433 338.688 -3.44562 287.397 10.2358 238.637C24.1109 189.188 52.1251 144.75 86.83 106.89C121.402 69.176 163.264 37.9275 211.029 19.5935C257.9 1.60204 308.943 -1.34219 359.008 2.41616Z" stroke="black"/>
</svg>
