<svg width="707" height="717" viewBox="0 0 707 717" fill="none" xmlns="http://www.w3.org/2000/svg">
<path fill-rule="evenodd" clip-rule="evenodd" d="M350.743 1.08294C402.052 0.833701 453.47 10.2451 499.722 32.4591C545.476 54.4339 582.1 90.4583 615.82 128.396C649.418 166.195 682.576 206.092 697.109 254.532C711.547 302.657 704.815 353.78 698.389 403.612C692.053 452.743 683.982 502.269 659.601 545.392C635.14 588.656 598.3 623.253 557.866 652.153C517.585 680.944 473.224 705.402 424.381 713.514C376.228 721.511 327.611 710.453 280.35 698.243C234.259 686.335 191.1 667.528 150.457 642.742C107.806 616.732 62.1708 591.325 35.6303 549.003C8.90036 506.378 2.26943 454.155 0.659224 403.868C-0.899198 355.198 12.272 308.288 26.4307 261.697C40.7668 214.523 54.509 166.501 84.6513 127.483C115.641 87.3681 156.619 55.6535 202.406 33.9034C248.654 11.9344 299.542 1.33165 350.743 1.08294Z" stroke="black"/>
</svg>
