<svg width="704" height="713" viewBox="0 0 704 713" fill="none" xmlns="http://www.w3.org/2000/svg">
<path fill-rule="evenodd" clip-rule="evenodd" d="M341.657 1.40997C392.906 1.74041 443.145 14.0096 490.045 34.6716C537.033 55.3723 583.281 81.46 615.004 121.833C646.196 161.53 653.608 213.519 668.483 261.764C683.189 309.462 705.863 356.085 702.583 405.891C699.27 456.195 677.528 503.762 649.771 545.846C622.686 586.912 584.591 618.668 543.956 646.396C503.973 673.68 461.186 697.504 413.708 706.93C366.472 716.309 317.877 711.428 270.952 700.598C224.436 689.861 181.61 669.257 141.093 644.009C98.8397 617.678 52.8412 592.192 27.8716 549.12C2.89543 506.037 3.63204 453.444 1.76833 403.68C-0.0226819 355.857 3.42505 308.363 17.1379 262.513C31.0155 216.113 52.9219 172.933 82.297 134.427C112.934 94.2672 147.47 55.8034 192.415 32.7526C238.146 9.29893 290.264 1.07861 341.657 1.40997Z" stroke="black"/>
</svg>
