<svg width="720" height="709" viewBox="0 0 720 709" fill="none" xmlns="http://www.w3.org/2000/svg">
<path fill-rule="evenodd" clip-rule="evenodd" d="M358.041 1.30393C406.885 3.72338 451.836 24.3954 496.942 43.2899C542.732 62.4708 592.589 77.2809 626.338 113.69C660.182 150.203 671.401 201.102 687.034 248.37C702.722 295.805 721.34 343.284 718.773 393.18C716.16 443.947 699.341 493.664 672.199 536.645C645.436 579.027 606.254 611.811 563.843 638.528C522.747 664.415 476.412 678.61 429.139 689.756C381.217 701.055 331.844 715.312 283.797 704.557C235.854 693.825 198.013 659.086 158.96 629.277C120.513 599.93 81.88 570.457 55.2307 530.093C27.9029 488.702 8.19921 441.907 2.70844 392.613C-2.79423 343.212 7.61015 293.663 23.655 246.617C39.585 199.908 63.5332 156.489 95.9336 119.263C128.59 81.7439 167.516 49.6322 212.875 29.2187C258.306 8.77303 308.283 -1.16084 358.041 1.30393Z" stroke="black"/>
</svg>
