<svg width="704" height="708" viewBox="0 0 704 708" fill="none" xmlns="http://www.w3.org/2000/svg">
<path fill-rule="evenodd" clip-rule="evenodd" d="M353.178 7.07724C403.168 3.43574 455.717 -7.86765 501.829 11.7782C548.013 31.4551 575.418 78.0018 608.427 115.825C641.067 153.226 680.843 186.992 695.995 234.264C711.135 281.5 698.596 332.081 693.56 381.427C688.513 430.881 688.958 482.179 666.185 526.366C643.11 571.139 605.697 607.706 563.093 634.575C521.477 660.821 471.859 667.455 424.049 679.072C375.197 690.942 326.119 714.758 276.989 704.094C227.875 693.434 191.7 653.126 153.586 620.368C117.436 589.298 83.7599 556.188 58.1342 515.996C31.9048 474.856 7.11271 431.083 1.9686 382.565C-3.17674 334.036 13.2355 286.506 28.9022 240.288C44.451 194.417 61.4566 148.158 93.6824 112.001C125.963 75.7813 168.889 50.9412 213.868 32.7547C258.127 14.8589 305.564 10.5457 353.178 7.07724Z" stroke="black"/>
</svg>
