<svg width="684" height="704" viewBox="0 0 684 704" fill="none" xmlns="http://www.w3.org/2000/svg">
<path fill-rule="evenodd" clip-rule="evenodd" d="M339.491 0.798886C388.381 0.244531 436.98 11.4695 481.009 32.7278C524.495 53.7235 559.58 87.4408 592.367 122.893C625.412 158.624 659.306 195.494 674.347 241.782C689.388 288.069 681.265 337.598 677.912 386.153C674.475 435.937 676.102 487.448 654.285 532.329C632.042 578.086 595.913 617.208 552.611 643.917C510.238 670.053 458.98 673.311 410.133 682.926C361.828 692.435 313.753 708.114 265.112 700.509C215.655 692.777 170.12 668.863 129.866 639.107C89.7583 609.46 54.3461 572.708 31.9375 528.149C9.95831 484.445 5.59333 434.821 2.57373 385.995C-0.370424 338.388 -0.0115976 290.423 14.4242 244.962C28.9001 199.376 54.5351 158.367 86.2307 122.546C118.058 86.5768 156.107 56.7301 199.395 35.921C243.265 14.8318 290.818 1.35078 339.491 0.798886Z" stroke="black"/>
</svg>
