<svg width="708" height="696" viewBox="0 0 708 696" fill="none" xmlns="http://www.w3.org/2000/svg">
<path fill-rule="evenodd" clip-rule="evenodd" d="M357.956 0.849019C406.568 1.39303 455.208 5.28053 500.51 22.9197C546.754 40.9256 589.412 67.9317 623.316 104.171C657.475 140.683 682.996 184.941 696.998 232.941C710.837 280.384 707.263 330.147 703.611 379.432C699.886 429.704 699.647 482.18 675.259 526.297C650.771 570.595 608.761 602.445 565.66 628.982C524.038 654.609 476.845 667.35 429.109 677.851C381.16 688.399 332.125 700.754 284.021 690.938C235.812 681.101 196.194 649.398 155.335 621.986C113.41 593.86 66.7003 569.497 39.5551 526.931C12.1479 483.953 2.71056 431.535 1.3862 380.579C0.102403 331.184 17.5567 284.447 32.0249 237.201C46.6693 189.379 55.3576 137.897 87.4494 99.5372C119.8 60.8673 166.61 36.9928 213.974 19.7131C259.949 2.94023 309.02 0.301385 357.956 0.849019Z" stroke="black"/>
</svg>
