<svg width="707" height="725" viewBox="0 0 707 725" fill="none" xmlns="http://www.w3.org/2000/svg">
<path fill-rule="evenodd" clip-rule="evenodd" d="M366.309 0.842521C410.357 3.21327 448.106 30.8332 488.851 47.7367C528.909 64.3554 574.048 71.8102 606.558 100.514C639.141 129.281 656.79 170.949 673.737 210.974C690.204 249.866 701.588 290.576 704.86 332.684C708.113 374.535 703.144 416.269 692.854 456.965C682.422 498.22 668.778 539.16 643.918 573.696C618.886 608.468 584.335 634.8 548.231 657.87C511.892 681.091 472.713 699.09 430.938 709.792C387.95 720.805 343.331 728.356 299.473 721.596C255.241 714.779 214.34 694.503 176.518 670.578C138.847 646.748 103.5 618.324 78.1999 581.625C53.2081 545.373 43.9336 501.547 30.9761 459.465C17.8412 416.808 -1.43092 374.763 0.777654 330.184C3.00423 285.241 20.9199 242.224 43.6625 203.396C65.8829 165.461 98.4834 135.504 131.687 106.688C164.465 78.2421 198.987 52.1117 238.547 34.2649C279.018 16.0073 321.975 -1.54362 366.309 0.842521Z" stroke="#BFBE87"/>
</svg>
