<svg width="699" height="703" viewBox="0 0 699 703" fill="none" xmlns="http://www.w3.org/2000/svg">
<path fill-rule="evenodd" clip-rule="evenodd" d="M354.42 1.59459C397.704 4.39365 438.279 20.8561 478.355 37.4499C517.933 53.8377 557.591 70.9258 589.87 99.0863C622.383 127.45 648.383 162.799 666.776 201.828C685.031 240.565 693.774 282.926 696.64 325.652C699.477 367.927 695.596 410.388 683.492 450.993C671.447 491.402 649.379 527.364 626.044 562.485C601.921 598.792 579.688 638.402 543.164 662.197C506.519 686.07 461.435 692.142 418.089 697.963C375.774 703.645 333.146 703.512 291.109 696.043C248.907 688.545 208.358 674.563 170.741 654.014C132.22 632.972 95.2489 608.052 67.6076 573.954C39.6849 539.509 20.64 498.413 9.75713 455.429C-1.01826 412.869 -0.880339 368.509 4.56297 324.945C9.93219 281.974 21.315 239.862 41.4806 201.539C61.4813 163.528 91.2365 132.368 121.783 102.174C153.013 71.3044 183.81 38.4351 224.115 21.0092C264.77 3.43246 310.221 -1.26359 354.42 1.59459Z" stroke="#BFBE87"/>
</svg>
