<svg width="720" height="716" viewBox="0 0 720 716" fill="none" xmlns="http://www.w3.org/2000/svg">
<path fill-rule="evenodd" clip-rule="evenodd" d="M368.57 1.4012C412.145 0.17205 453.591 17.6371 494.201 33.4807C534.762 49.3047 575.046 66.6917 608.215 94.8944C641.77 123.425 669.889 158.553 688.335 198.549C706.618 238.191 710.606 282.236 714.662 325.702C718.72 369.184 723.916 413.475 712.323 455.579C700.705 497.771 672.963 532.831 647.776 568.619C622.092 605.113 600.446 647.551 561.67 669.64C522.958 691.693 474.979 684.576 431.062 692.073C387.674 699.48 345.392 721.261 301.985 713.97C258.521 706.669 222.349 677.35 186.966 651.073C152.994 625.843 125.827 593.945 97.7459 562.289C68.1823 528.962 31.9103 499.681 15.8185 458.139C-0.503452 416.002 -2.2721 368.644 5.49197 324.128C13.1054 280.477 38.8053 243.03 60.1126 204.179C80.9019 166.272 97.9319 125.062 130.352 96.4601C162.665 67.9536 205.634 56.4617 245.655 40.4917C285.93 24.4203 325.224 2.62389 368.57 1.4012Z" stroke="#BFBE87"/>
</svg>
