<svg width="702" height="729" viewBox="0 0 702 729" fill="none" xmlns="http://www.w3.org/2000/svg">
<path fill-rule="evenodd" clip-rule="evenodd" d="M347.898 0.965218C391.864 0.00854383 433.096 20.2879 473.361 37.9693C512.733 55.258 549.444 77.0194 582.824 104.126C617.154 132.005 652.304 160.86 672.89 200.001C693.572 239.322 700.235 284.675 701.148 329.094C702.037 372.376 692.466 414.937 678.145 455.791C664.199 495.577 644.098 532.685 618.14 565.905C592.364 598.89 559.68 624.711 526.354 650.044C491.085 676.852 457.651 708.679 414.922 720.376C371.642 732.225 324.714 729.132 281.49 717.076C239.194 705.279 206.193 674.087 168.458 651.633C130.22 628.88 83.4857 617.231 55.5252 582.617C27.5145 547.942 20.6607 501.155 11.6408 457.501C2.94155 415.399 -1.70014 372.596 3.30715 329.897C8.26693 287.603 23.0025 247.597 40.7933 208.908C58.8653 169.607 76.9474 128.816 109.086 99.8632C141.188 70.943 184.611 59.9158 224.532 43.3837C265.053 26.6029 304.05 1.91932 347.898 0.965218Z" stroke="#BFBE87"/>
</svg>
