<svg width="699" height="692" viewBox="0 0 699 692" fill="none" xmlns="http://www.w3.org/2000/svg">
<path fill-rule="evenodd" clip-rule="evenodd" d="M342.951 1.48635C385.331 1.47513 427.878 5.17137 467.684 19.7159C507.757 34.3577 542.007 60.1859 575.596 86.4908C610.603 113.906 649.118 139.606 670.533 178.574C692.077 217.777 696.521 264.096 697.775 308.812C698.998 352.398 691.342 395.517 677.781 436.959C664.449 477.703 643.268 514.804 618.841 550.034C593.898 586.011 568.589 622.986 532.066 647.124C495.29 671.429 451.673 683.789 407.951 689.411C365.09 694.923 322.299 687.342 279.791 679.565C237.191 671.772 193.411 665.456 156.171 643.35C118.758 621.141 89.2148 587.764 64.6503 551.854C40.522 516.581 24.6818 476.668 13.8687 435.323C3.15916 394.374 -1.52485 352.267 1.40869 310.043C4.37103 267.403 14.0716 225.615 31.1599 186.438C48.6093 146.432 70.0117 107.073 102.602 78.0409C135.107 49.0843 176.763 32.9939 218.242 19.782C258.619 6.92151 300.575 1.49758 342.951 1.48635Z" stroke="#BFBE87"/>
</svg>
