<svg width="710" height="711" viewBox="0 0 710 711" fill="none" xmlns="http://www.w3.org/2000/svg">
<path fill-rule="evenodd" clip-rule="evenodd" d="M355.502 5.52393C400.142 3.52354 446.602 -5.85905 488.336 10.1106C530.083 26.0855 560.368 62.2271 590.342 95.3872C618.96 127.047 640.933 163.204 660.841 200.953C681.013 239.201 705.063 277.177 708.929 320.245C712.794 363.293 694.123 404.407 682.853 446.134C671.485 488.229 664.941 532.231 641.713 569.131C617.929 606.914 585.681 639.994 546.898 662.111C508.437 684.045 463.215 688.272 419.585 695.809C376.309 703.285 332.358 715.731 289.403 706.593C246.615 697.491 212.523 667.009 175.403 643.863C138.361 620.766 95.3451 604.158 69.1365 569.247C42.9362 534.348 38.6364 488.52 27.1712 446.413C15.7897 404.613 -1.53179 363.402 1.31719 320.174C4.18226 276.703 24.507 236.845 43.565 197.669C62.7156 158.301 82.5263 118.518 114.145 88.2387C145.984 57.7483 185.498 36.1045 227.201 21.8125C268.333 7.71629 312.065 7.47041 355.502 5.52393Z" stroke="#BFBE87"/>
</svg>
