<svg width="708" height="703" viewBox="0 0 708 703" fill="none" xmlns="http://www.w3.org/2000/svg">
<path fill-rule="evenodd" clip-rule="evenodd" d="M352.202 1.37911C395.181 -0.541039 437.877 6.72236 478.816 19.9507C520.773 33.5081 563.003 50.0935 595.429 79.9722C627.82 109.818 645.751 151.415 664.66 191.194C683.385 230.583 703.396 270.444 706.647 313.936C709.884 357.245 695.769 399.384 683.331 440.994C670.983 482.303 658.12 523.805 633.361 559.102C608.31 594.814 575.875 625.171 538.436 647.559C501.187 669.832 458.663 680.153 416.169 688.976C373.23 697.891 329.723 705.205 286.186 699.933C241.657 694.541 198.027 680.976 159.562 657.904C120.927 634.729 88.8183 602.124 62.3495 565.666C36.0734 529.474 14.3913 489.27 5.33283 445.473C-3.55033 402.523 4.26176 358.528 10.53 315.119C16.6222 272.929 23.3329 230.64 41.8957 192.266C60.5341 153.736 86.4814 118.801 118.974 90.9414C151.144 63.3579 190.335 46.2629 229.895 31.0713C269.396 15.9025 309.931 3.26759 352.202 1.37911Z" stroke="#BFBE87"/>
</svg>
