<svg width="718" height="711" viewBox="0 0 718 711" fill="none" xmlns="http://www.w3.org/2000/svg">
<path fill-rule="evenodd" clip-rule="evenodd" d="M351.463 7.32703C394.917 8.75634 439.57 2.64529 480.371 17.6641C521.311 32.7339 554.514 62.9673 585.645 93.529C616.256 123.58 640.187 158.838 661.874 195.848C684.392 234.275 712.072 272.27 716.363 316.601C720.655 360.948 702.25 404.108 686.05 445.612C670.564 485.286 647.709 520.785 623.097 555.542C598.044 590.921 574.761 628.791 538.993 653.285C502.843 678.04 459.144 688.082 416.283 697.169C372.906 706.364 328.677 713.383 284.773 707.178C240.233 700.884 197.396 684.688 159.253 660.844C121.167 637.035 88.5942 605.174 62.7899 568.41C37.3102 532.109 19.8449 490.833 9.63138 447.674C-0.405433 405.262 0.433988 361.648 3.5727 318.177C6.7454 274.236 8.08523 228.643 28.2735 189.485C48.4136 150.42 86.6828 125.192 118.63 95.0083C150.962 64.4613 177.601 24.7502 219.228 9.07439C260.836 -6.59465 307.026 5.86539 351.463 7.32703Z" stroke="#BFBE87"/>
</svg>
