<svg width="716" height="699" viewBox="0 0 716 699" fill="none" xmlns="http://www.w3.org/2000/svg">
<path fill-rule="evenodd" clip-rule="evenodd" d="M352.198 6.2361C395.88 7.28629 440.374 0.0626545 481.965 13.4586C524.137 27.0418 559.959 54.7745 593.34 83.906C627.054 113.327 658.33 146.019 679.212 185.593C700.254 225.469 713.41 269.74 715.172 314.792C716.907 359.173 701.43 401.615 689.329 444.349C677.219 487.117 670.486 533.09 643.383 568.32C616.314 603.506 574.576 623.418 535.444 644.38C497.561 664.672 458.202 681.64 416.065 690.088C373.693 698.582 330.403 699.92 287.586 694.07C243.856 688.096 200.024 678.024 162.131 655.396C124.071 632.668 93.8547 599.049 68.0766 562.985C42.5737 527.307 23.1521 487.638 11.9157 445.246C0.756905 403.147 -0.491047 359.475 2.61955 316.034C5.76139 272.156 12.8784 228.536 30.3246 188.153C48.1254 146.95 73.0522 108.826 105.524 77.8391C138.244 46.615 176.555 19.7684 219.99 7.16033C262.677 -5.23051 307.762 5.16779 352.198 6.2361Z" stroke="#BFBE87"/>
</svg>
