<svg width="690" height="722" viewBox="0 0 690 722" fill="none" xmlns="http://www.w3.org/2000/svg">
<path fill-rule="evenodd" clip-rule="evenodd" d="M341.499 1.30897C385.302 0.886332 424.443 26.0533 465.494 41.3409C506.915 56.7664 554.173 62.5096 586.573 92.5755C618.96 122.63 630.647 168.277 646.659 209.457C661.879 248.602 672.695 288.608 678.941 330.14C685.385 372.985 695.804 417.171 684.174 458.908C672.537 500.672 640.877 533.227 613.081 566.498C586.013 598.897 557.305 629.782 522.034 652.983C486.369 676.442 446.643 692.196 405.376 703.119C362.634 714.433 318.03 727.518 274.759 718.437C231.576 709.375 197.516 677.586 161.597 651.96C127.036 627.302 92.2749 602.804 65.9717 569.477C39.4564 535.882 18.0345 497.926 7.32168 456.49C-3.31417 415.352 2.37939 372.6 4.09479 330.144C5.86852 286.243 -1.63599 239.628 17.6782 200.165C36.9973 160.692 77.3378 136.677 112.002 109.663C145.202 83.791 180.366 61.695 218.427 43.7247C258.003 25.0397 297.736 1.73121 341.499 1.30897Z" stroke="#BFBE87"/>
</svg>
